<!-- icon666.com - MILLIONS vector ICONS FREE --><svg clip-rule="evenodd" fill-rule="evenodd" image-rendering="optimizeQuality" shape-rendering="geometricPrecision" text-rendering="geometricPrecision" viewBox="0 0 1707 1707" xmlns="http://www.w3.org/2000/svg"><g id="Layer_x0020_1"><g id="_513222240"><g><path d="m1687 1409c-11 0-20-9-20-20 0-131-107-237-237-237-131 0-237 106-237 237 0 11-9 20-20 20s-20-9-20-20v-1071c0-153 124-277 277-277 152 0 277 124 277 277v1071c0 11-9 20-20 20zm-257-1328c-131 0-237 106-237 237v928c48-80 136-134 237-134 100 0 188 54 237 134v-928c0-131-107-237-237-237z" fill="#000000" style="fill: rgb(239, 235, 235);"></path></g><g><path d="m1430 1666c-153 0-277-124-277-277s124-277 277-277c152 0 277 124 277 277s-125 277-277 277zm0-514c-131 0-237 106-237 237s106 237 237 237c130 0 237-106 237-237s-107-237-237-237z" fill="#000000" style="fill: rgb(239, 235, 235);"></path></g><g><path d="m1430 1666h-1410c-11 0-20-9-20-20v-1328c0-11 9-20 20-20h1153c11 0 20 9 20 20v1071c0 131 106 237 237 237 11 0 20 9 20 20s-9 20-20 20zm-1390-40h1246c-80-49-133-137-133-237v-1051h-1113z" fill="#000000" style="fill: rgb(239, 235, 235);"></path></g><g><path d="m1173 1363h-848c-12 0-20-9-20-20v-773c0-11 8-20 20-20h848c11 0 20 9 20 20v773c0 11-9 20-20 20zm-828-40h808v-733h-808z" fill="#000000" style="fill: rgb(239, 235, 235);"></path></g><g><path d="m749 913h-37c-11 0-20-9-20-20s9-20 20-20h25c4-2 7-3 12-3 11 0 20 9 20 20v3c0 11-9 20-20 20zm-157 0h-200c-11 0-20-9-20-20s9-20 20-20h200c11 0 20 9 20 20s-9 20-20 20zm157-123c-11 0-20-9-20-20v-200c0-11 9-20 20-20s20 9 20 20v200c0 11-9 20-20 20z" fill="#000000" style="fill: rgb(239, 235, 235);"></path></g><g><path d="m1173 1045h-298c-12 0-20-9-20-20s8-20 20-20h298c11 0 20 9 20 20s-9 20-20 20z" fill="#000000" style="fill: rgb(239, 235, 235);"></path></g><g><path d="m641 1363c-11 0-20-9-20-20v-232c0-11 9-20 20-20s20 9 20 20v232c0 11-9 20-20 20z" fill="#000000" style="fill: rgb(239, 235, 235);"></path></g><g><path d="m1430 925c-11 0-20-9-20-20v-584c0-11 9-20 20-20s20 9 20 20v584c0 11-9 20-20 20z" fill="#000000" style="fill: rgb(239, 235, 235);"></path></g><g><path d="m1377 1493c-5 0-10-2-14-6l-63-62c-8-8-8-21 0-29s21-8 29 0l48 49 154-154c8-8 20-8 28 0s8 20 0 28l-168 168c-4 4-9 6-14 6z" fill="#000000" style="fill: rgb(239, 235, 235);"></path></g></g></g></svg>